<?xml version="1.0" encoding="UTF-8" standalone="no"?>
<svg
   xmlns:dc="http://purl.org/dc/elements/1.1/"
   xmlns:cc="http://creativecommons.org/ns#"
   xmlns:rdf="http://www.w3.org/1999/02/22-rdf-syntax-ns#"
   xmlns:svg="http://www.w3.org/2000/svg"
   xmlns="http://www.w3.org/2000/svg"
   viewBox="0 0 562.88666 532.36798"
   height="532.36798"
   width="562.88666"
   xml:space="preserve"
   id="svg2"
   version="1.1"><metadata
     id="metadata8"><rdf:RDF><cc:Work
         rdf:about=""><dc:format>image/svg+xml</dc:format><dc:type
           rdf:resource="http://purl.org/dc/dcmitype/StillImage" /></cc:Work></rdf:RDF></metadata><defs
     id="defs6"><linearGradient
       id="linearGradient32"
       spreadMethod="pad"
       gradientTransform="matrix(-249.36331,249.36331,249.36331,249.36331,337.09244,70.865715)"
       gradientUnits="userSpaceOnUse"
       y2="0"
       x2="1"
       y1="0"
       x1="0"><stop
         id="stop24"
         offset="0"
         style="stop-opacity:1;stop-color:#662b6f" /><stop
         id="stop26"
         offset="0.10594958"
         style="stop-opacity:1;stop-color:#662b6f" /><stop
         id="stop28"
         offset="0.477833"
         style="stop-opacity:1;stop-color:#8e368c" /><stop
         id="stop30"
         offset="1"
         style="stop-opacity:1;stop-color:#00fcde" /></linearGradient><clipPath
       id="clipPath48"
       clipPathUnits="userSpaceOnUse"><path
         id="path46"
         d="M 0,399.276 H 422.165 V 0 H 0 Z" /></clipPath></defs><g
     transform="matrix(1.3333333,0,0,-1.3333333,0,532.368)"
     id="g10"><g
       id="g12"><g
         id="g14"><g
           id="g20"><g
             id="g22"><path
               id="path34"
               style="fill:url(#linearGradient32);stroke:none"
               d="M 213.377,378.797 54.651,287.152 V 103.873 l 55.613,-32.109 103.113,-59.528 153.982,88.896 -40.38,23.371 -108.703,-62.759 -0.013,-6.617 6.61,-3.817 V 38.039 l -11.495,-6.64 -11.494,6.64 V 51.31 l 6.68,3.858 0.014,6.518 -107.53,62.079 -6.27,-3.641 v -7.703 L 83.284,105.78 71.79,112.421 v 13.27 l 11.494,6.638 6.618,-3.822 5.174,3.006 v 126.626 l -6.565,3.802 -7.423,-4.289 -11.495,6.641 v 13.271 l 11.495,6.637 11.494,-6.637 v -6.772 l 7.272,-4.212 109.265,63.085 0.016,7.752 -6.505,3.758 v 13.27 l 11.494,6.638 11.495,-6.638 v -13.27 l -6.786,-3.92 -0.017,-8.272 108.659,-62.738 40.219,23.453 z" /></g></g></g></g><path
       id="path36"
       style="fill:#406b85;fill-opacity:1;fill-rule:nonzero;stroke:none"
       d="m 292.182,165.197 h -18.877 v 60 h 18.877 z" /><g
       transform="translate(328.3828,164.0524)"
       id="g38"><path
         id="path40"
         style="fill:#406b85;fill-opacity:1;fill-rule:nonzero;stroke:none"
         d="M 0,0 -27.748,61.145 H -7.506 L 5.208,28.094 18.149,61.145 H 38.165 L 10.54,0 Z" /></g><g
       id="g42"><g
         clip-path="url(#clipPath48)"
         id="g44"><g
           transform="translate(238.6596,237.0075)"
           id="g50"><path
             id="path52"
             style="fill:#00506d;fill-opacity:1;fill-rule:nonzero;stroke:none"
             d="m 0,0 c 10.654,0 19.95,-2.179 27.661,-6.47 l 38.295,22.246 -86.269,49.817 -0.14,-69.066 C -14.35,-1.171 -7.521,0 0,0" /></g><g
           transform="translate(264.1836,181.4616)"
           id="g54"><path
             id="path56"
             style="fill:#406b85;fill-opacity:1;fill-rule:nonzero;stroke:none"
             d="m 0,0 v -14.802 c -8.478,-4.496 -17.358,-6.745 -26.643,-6.745 -12.036,0 -21.621,3.324 -28.754,9.973 -7.134,6.649 -10.701,14.842 -10.701,24.58 0,9.739 3.762,18.005 11.283,24.799 7.523,6.794 17.349,10.191 29.482,10.191 9.673,0 17.859,-1.99 24.556,-5.97 V 26.935 c -8.219,4.626 -15.999,6.939 -23.343,6.939 -7.215,0 -13.111,-1.934 -17.689,-5.8 -4.578,-3.866 -6.867,-8.792 -6.867,-14.777 0,-6.017 2.257,-10.984 6.77,-14.898 4.513,-3.915 10.296,-5.873 17.349,-5.873 3.494,0 6.859,0.461 10.095,1.384 C -11.228,-5.168 -6.407,-3.138 0,0" /></g><g
           transform="translate(266.874,159.279)"
           id="g58"><path
             id="path60"
             style="fill:#00506d;fill-opacity:1;fill-rule:nonzero;stroke:none"
             d="m 0,0 c -9.377,-4.771 -19.321,-7.195 -29.576,-7.195 -7.087,0 -13.516,1.026 -19.25,3.061 l -0.133,-66.107 85.232,49.236 z" /></g><g
           transform="translate(203.7778,224.7848)"
           id="g62"><path
             id="path64"
             style="fill:#00506d;fill-opacity:1;fill-rule:nonzero;stroke:none"
             d="M 0,0 C 1.77,1.599 3.65,3.036 5.632,4.322 L 5.78,77.636 -80.511,27.806 -9.95,-13.053 C -7.65,-8.282 -4.337,-3.918 0,0" /></g><g
           transform="translate(189.9658,194.318)"
           id="g66"><path
             id="path68"
             style="fill:#00506d;fill-opacity:1;fill-rule:nonzero;stroke:none"
             d="M 0,0 C 0,3.1 0.32,6.082 0.944,8.948 L -70.332,50.222 V -48.994 L 0.679,-7.741 C 0.235,-5.249 0,-2.671 0,0" /></g><g
           transform="translate(203.0996,164.1461)"
           id="g70"><path
             id="path72"
             style="fill:#00506d;fill-opacity:1;fill-rule:nonzero;stroke:none"
             d="M 0,0 C -4.385,4.087 -7.68,8.688 -9.874,13.767 L -78.068,-25.85 6.029,-74.431 6.169,-4.743 C 3.974,-3.354 1.911,-1.78 0,0" /></g></g></g></g></svg>