<svg xmlns="http://www.w3.org/2000/svg" xmlns:xlink="http://www.w3.org/1999/xlink" id="Livello_1" x="0px" y="0px" viewBox="0 0 611.9 595.3" style="enable-background:new 0 0 611.9 595.3;" xml:space="preserve">
<style type="text/css">
	.st0{fill:url(#SVGID_1_);}
	.st1{fill:#406B85;}
</style>
<linearGradient id="SVGID_1_" gradientUnits="userSpaceOnUse" x1="499.6558" y1="482.287" x2="130.2648" y2="112.896">
	<stop offset="0" style="stop-color:#662B6F"></stop>
	<stop offset="0.1735" style="stop-color:#712E77"></stop>
	<stop offset="0.4768" style="stop-color:#8E368C"></stop>
	<stop offset="0.4778" style="stop-color:#8E368C"></stop>
	<stop offset="1" style="stop-color:#00FCDE"></stop>
</linearGradient>
<polygon class="st0" points="316.4,26.1 81.3,161.9 81.3,433.4 163.6,481 316.4,569.1 544.5,437.5 484.7,402.8 323.6,495.8   323.6,505.6 333.4,511.3 333.4,530.9 316.4,540.8 299.4,530.9 299.4,511.3 309.3,505.5 309.3,495.9 150,403.9 140.7,409.3   140.7,420.7 123.7,430.6 106.7,420.7 106.7,401.1 123.7,391.2 133.5,396.9 141.1,392.4 141.1,204.9 131.4,199.2 120.4,205.6   103.4,195.8 103.4,176.1 120.4,166.3 137.5,176.1 137.5,186.1 148.2,192.4 310.1,98.9 310.1,87.4 300.5,81.9 300.5,62.2 317.5,52.4   334.5,62.2 334.5,81.9 324.5,87.7 324.4,99.9 485.4,192.9 545,158.1 "></polygon>
<polygon class="st1" points="310.7,139.3 182.9,213.1 310.4,286.9 "></polygon>
<polygon class="st1" points="323.8,139 323.5,287.2 451.5,212.8 "></polygon>
<polygon class="st1" points="177.6,224.7 177.3,373 305.4,298.5 "></polygon>
<polygon class="st1" points="323.4,309.5 323.1,455.4 449.4,382.4 "></polygon>
<polygon class="st1" points="310.4,309.9 185.5,382.4 310.1,454.4 "></polygon>
</svg>