<svg width="36" height="36" viewBox="0 0 36 36" fill="none" xmlns="http://www.w3.org/2000/svg">
<path d="M17.5283 35.0566C27.2089 35.0566 35.0566 27.2089 35.0566 17.5283C35.0566 7.84769 27.2089 0 17.5283 0C7.84769 0 0 7.84769 0 17.5283C0 27.2089 7.84769 35.0566 17.5283 35.0566Z" fill="#121622"/>
<path d="M17.6908 3.73279L5.68066 10.7116V24.5071L9.90044 26.9416L17.6908 31.4859L29.3763 24.6694L26.2926 22.8841L18.1777 27.7531V28.24L18.6646 28.5646V29.5383L17.6908 30.0252L16.8793 29.5383V28.5646L17.3662 28.24V27.7531L9.25124 23.0464L8.76435 23.2087V23.8579L7.95285 24.3448L6.97906 23.8579V22.8841L7.95285 22.3972L8.43975 22.7218L8.76435 22.3972V12.8215L8.27745 12.4969L7.79055 12.8215L6.81676 12.3346V11.3608L7.79055 10.8739L8.60205 11.3608V11.8477L9.08894 12.1723L17.3662 7.46567V6.81647L16.8793 6.49187V5.51808L17.8531 5.03118L18.6646 5.51808V6.49187L18.1777 6.81647V7.46567L26.4549 12.1723L29.3763 10.3871L17.6908 3.73279Z" fill="url(#paint0_linear_47_364)"/>
<path d="M17.5283 9.41321L10.874 13.3084L17.366 17.0413L17.5283 9.41321Z" fill="#406B85"/>
<path d="M18.1777 9.41321V17.0413L24.6697 13.3084L18.1777 9.41321Z" fill="#406B85"/>
<path d="M10.7119 13.7953V21.4233L17.2039 17.6905L10.7119 13.7953Z" fill="#406B85"/>
<path d="M18.1779 18.1774L18.0156 25.6431L24.5076 21.9102L18.1779 18.1774Z" fill="#406B85"/>
<path d="M17.3658 18.1774L11.0361 21.9102L17.3658 25.6431V18.1774Z" fill="#406B85"/>
<defs>
<linearGradient id="paint0_linear_47_364" x1="27.1145" y1="27.0182" x2="8.23817" y2="8.14181" gradientUnits="userSpaceOnUse">
<stop stop-color="#662B6F"/>
<stop offset="0.1735" stop-color="#712E77"/>
<stop offset="0.4768" stop-color="#8E368C"/>
<stop offset="0.4778" stop-color="#8E368C"/>
<stop offset="1" stop-color="#00FCDE"/>
</linearGradient>
</defs>
</svg>
