<?xml version="1.0" encoding="UTF-8"?>
<svg xmlns="http://www.w3.org/2000/svg" xmlns:xlink="http://www.w3.org/1999/xlink" width="28px" height="25px" viewBox="0 0 28 25" version="1.1">
<g id="surface1">
<path style=" stroke:none;fill-rule:evenodd;fill:rgb(31.372549%,68.627451%,58.431373%);fill-opacity:1;" d="M 5.128906 0.148438 L 0.0234375 11.132812 C -0.0195312 11.21875 0 11.316406 0.0664062 11.382812 L 13.851562 24.910156 C 13.9375 24.992188 14.0625 24.992188 14.148438 24.910156 L 27.933594 11.382812 C 28 11.316406 28.019531 11.21875 27.976562 11.132812 L 22.871094 0.148438 C 22.839844 0.0742188 22.765625 0.0234375 22.6875 0.0234375 L 5.316406 0.0234375 C 5.238281 0.0234375 5.164062 0.0742188 5.128906 0.148438 Z M 5.128906 0.148438 "/>
<path style=" stroke:none;fill-rule:evenodd;fill:rgb(100%,100%,100%);fill-opacity:1;" d="M 15.773438 12.261719 C 15.671875 12.269531 15.160156 12.296875 14.023438 12.296875 C 13.117188 12.296875 12.46875 12.273438 12.242188 12.261719 C 8.738281 12.097656 6.117188 11.476562 6.117188 10.730469 C 6.117188 9.980469 8.738281 9.355469 12.242188 9.195312 L 12.242188 11.636719 C 12.472656 11.652344 13.128906 11.695312 14.039062 11.695312 C 15.125 11.695312 15.667969 11.648438 15.769531 11.636719 L 15.769531 9.195312 C 19.269531 9.355469 21.878906 9.980469 21.878906 10.730469 C 21.878906 11.472656 19.269531 12.097656 15.769531 12.261719 Z M 15.773438 8.941406 L 15.773438 6.761719 L 20.65625 6.761719 L 20.65625 3.425781 L 7.359375 3.425781 L 7.359375 6.761719 L 12.242188 6.761719 L 12.242188 8.941406 C 8.273438 9.128906 5.289062 9.933594 5.289062 10.898438 C 5.289062 11.863281 8.273438 12.671875 12.242188 12.859375 L 12.242188 19.863281 L 15.773438 19.863281 L 15.773438 12.855469 C 19.730469 12.667969 22.710938 11.863281 22.710938 10.898438 C 22.710938 9.933594 19.734375 9.128906 15.773438 8.941406 Z M 15.773438 8.941406 Z M 15.773438 8.941406 "/>
</g>
</svg>
